# xmcd
#
# Track frame offsets:
#	150
#	3805
#	8524
#	16532
#	19712
#	30376
#	41340
#	47230
#	51115
#	54868
#	59797
#	70261
#	75886
#	81954
#	87679
#	93774
#	102857
#	107789
#	113527
#	116821
#	121937
#	128223
#	130817
#	136251
#	140841
#	149209
#	154300
#	158911
#	166009
#	171499
#	175645
#	181632
#	188499
#	200957
#	207895
#	217972
#	222617
#	228377
#	236521
#	242938
#	247441
#	252325
#	256183
#	261299
#	268040
#	271660
#	277922
#	279882
#	286915
#	292073
#
# Disc length: 4012 seconds
#
# Revision: 1
# Processed by: cddbd v1.5.2PL0 Copyright (c) Steve Scherf et al.
# Submitted via: audiograbber 1.83.01
#
DISCID=ce0faa32
DTITLE=Καζαντζίδης-Αγγελόπουλος-Διονυσίου - ΟΙ ΑΘΑΝΑΤΟΙ
DYEAR=1900
DGENRE=ΛΑΙΚΑ
TTITLE0=Αναστενάζω
TTITLE1=Τραγουδω
TTITLE2=Υπάρχω
TTITLE3=Τα πήρες όλα
TTITLE4=Ακου ρε φίλε
TTITLE5=Χίλια κομμάτια
TTITLE6=Πάρε τα χνάρια
TTITLE7=Μάς υποχρέωσες
TTITLE8=Χωρίς αισθήματα
TTITLE9=Σε θυμάμαι
TTITLE10=Δυστηχώς
TTITLE11=Υποκρίνεσαι
TTITLE12=Ντροπή
TTITLE13=Κρίμα
TTITLE14=Γυναίκα μου
TTITLE15=¨Αργησα να σε γνωρίσω
TTITLE16=Συλλογίσου
TTITLE17=Γυναίκα μάνα 
TTITLE18=Της γυναίκας η καρδιά
TTITLE19=Τελειώσαμε
TTITLE20=Γύρνα
TTITLE21=Νομίζεις
TTITLE22=Θυμήσου
TTITLE23=Μας χωρίζει η ζωή
TTITLE24=Μετάνοιωσες
TTITLE25=Έκλαιγε μαζί μου
TTITLE26=Εγώ να δείς
TTITLE27=Δεν σε πιστεύω
TTITLE28=Και τι δεν κάνω
TTITLE29=Ποιός θεός
TTITLE30=Φίλε μου
TTITLE31=Κράτησέ με
TTITLE32=Τα φιλιά σου
TTITLE33=Τα χείλη σου
TTITLE34=Θολωμένο μυαλό
TTITLE35=Βραδυάζει
TTITLE36=Αναστενάζω
TTITLE37=Στο πικραμένο δειλινό
TTITLE38=Εψαξα άδικα 
TTITLE39=Ποιά είσαι εσύ
TTITLE40=Αντιλαλούνε τα βουνά
TTITLE41=Κλείστε την πόρτα
TTITLE42=Γυρίζω απ΄τη νύκτα
TTITLE43=Ανήμπορος
TTITLE44=Γυάλινος κόσμος
TTITLE45=Ο Αητός
TTITLE46=Εισαγωγή
TTITLE47=Μολυβιά
TTITLE48=Αγάπες μου περαστικές
TTITLE49=Τσιγγάνας αίμα
EXTD=
EXTT0=
EXTT1=
EXTT2=
EXTT3=
EXTT4=
EXTT5=
EXTT6=
EXTT7=
EXTT8=
EXTT9=
EXTT10=
EXTT11=
EXTT12=
EXTT13=
EXTT14=
EXTT15=
EXTT16=
EXTT17=
EXTT18=
EXTT19=
EXTT20=
EXTT21=
EXTT22=
EXTT23=
EXTT24=
EXTT25=
EXTT26=
EXTT27=
EXTT28=
EXTT29=
EXTT30=
EXTT31=
EXTT32=
EXTT33=
EXTT34=
EXTT35=
EXTT36=
EXTT37=
EXTT38=
EXTT39=
EXTT40=
EXTT41=
EXTT42=
EXTT43=
EXTT44=
EXTT45=
EXTT46=
EXTT47=
EXTT48=
EXTT49=
PLAYORDER=
